<?xml version="1.0" encoding="utf-8"?>
<!-- Generator: Adobe Illustrator 28.0.0, SVG Export Plug-In . SVG Version: 6.00 Build 0)  -->
<svg version="1.1" id="Ebene_1" xmlns="http://www.w3.org/2000/svg" xmlns:xlink="http://www.w3.org/1999/xlink" x="0px" y="0px"
	 viewBox="0 0 470.2 170.1" style="enable-background:new 0 0 470.2 170.1;" xml:space="preserve">
<style type="text/css">
	.st0{fill:#0057B7;}
</style>
<path class="st0" d="M223.8,120.6c1,0.1,1.9,0.3,2.8,0.7c0.7,0.3,1.3,0.7,1.7,1.3c0.4,0.5,0.7,1.1,0.9,1.7c0.2,0.6,0.2,1.3,0.2,1.9
	v0.6c0.1,1.7-0.6,3.3-2,4.4c-1.3,1-3.4,1.5-6.2,1.5h-3.9h-2.4l-2.3-0.1l0.8-4l4.1,0.1h3.9c0.9,0.1,1.8-0.1,2.6-0.4
	c0.5-0.3,0.8-0.9,0.7-1.5c0-0.5-0.1-0.9-0.4-1.3c-0.6-0.4-1.2-0.6-1.9-0.6l-4.1-0.3c-0.9,0-1.7-0.2-2.5-0.6
	c-0.6-0.3-1.2-0.7-1.7-1.2c-0.5-0.5-0.8-1.1-1-1.7c-0.2-0.6-0.3-1.3-0.3-1.9v-0.6c-0.1-1.6,0.6-3.1,1.8-4.2c1.2-1,3.3-1.5,6.2-1.5
	h3.5l4.8,0.1l-0.8,4l-2.9-0.1h-2.2h-2.9c-0.8-0.1-1.6,0.1-2.3,0.4c-0.4,0.3-0.7,0.8-0.6,1.3c0,0.5,0.1,0.9,0.4,1.3
	c0.6,0.4,1.3,0.6,2,0.6L223.8,120.6z"/>
<path class="st0" d="M237.9,124.4c0,0.7,0,1.5,0.1,2.2c0.1,1,0.9,1.8,1.9,2c0.7,0.1,1.5,0.2,2.2,0.2h3c1.1,0,2.5,0,4.2-0.1l-0.8,3.8
	l-1.9,0.1h-1.6h-3.2c-1.5,0-3-0.2-4.4-0.6c-2.1-0.6-3.7-2.4-4.1-4.5c-0.3-1.2-0.4-2.5-0.4-3.8v-2.1c0-1.3,0.1-2.7,0.4-4
	c0.2-1.1,0.7-2.1,1.5-2.9c0.8-0.8,1.7-1.5,2.8-1.8c1.4-0.4,2.9-0.6,4.4-0.6c1.4,0,2.8,0.2,4.1,0.6c1,0.3,1.9,0.8,2.6,1.5
	c0.7,0.6,1.1,1.4,1.4,2.3c0.3,0.9,0.4,1.9,0.4,2.9v0.6c0,0.7,0,1.4-0.1,2.1c-0.1,0.5-0.2,0.9-0.5,1.3c-0.2,0.3-0.6,0.5-0.9,0.6
	c-0.5,0.1-0.9,0.2-1.4,0.1L237.9,124.4z M242,116c-0.7,0-1.4,0.1-2.1,0.2c-0.5,0.1-0.9,0.4-1.2,0.8c-0.3,0.4-0.5,0.9-0.6,1.5
	c-0.1,0.8-0.2,1.6-0.1,2.4h8.1V120c0-0.6-0.1-1.2-0.2-1.9c-0.1-0.5-0.3-0.9-0.6-1.2c-0.3-0.3-0.8-0.6-1.2-0.7
	C243.3,116.1,242.6,116,242,116z"/>
<path class="st0" d="M259.4,124.4c0,0.7,0,1.5,0.1,2.2c0.1,1,0.9,1.8,1.9,2c0.7,0.1,1.5,0.2,2.2,0.2h3c1.1,0,2.5,0,4.2-0.1l-0.8,3.8
	l-1.9,0.1h-1.6h-3.2c-1.5,0-3-0.2-4.4-0.6c-2.1-0.6-3.7-2.4-4.1-4.5c-0.3-1.2-0.4-2.5-0.4-3.8v-2.1c0-1.3,0.1-2.7,0.4-4
	c0.2-1.1,0.7-2.1,1.5-2.9c0.8-0.8,1.7-1.5,2.8-1.8c1.4-0.4,2.9-0.6,4.4-0.6c1.4,0,2.8,0.2,4.1,0.6c1,0.3,1.9,0.8,2.6,1.5
	c0.7,0.6,1.1,1.4,1.4,2.3c0.3,0.9,0.4,1.9,0.4,2.9v0.6c0,0.7,0,1.4-0.1,2.1c-0.1,0.5-0.2,0.9-0.5,1.3c-0.2,0.3-0.6,0.5-0.9,0.6
	c-0.5,0.1-0.9,0.2-1.4,0.1L259.4,124.4z M263.4,116c-0.7,0-1.4,0.1-2.1,0.2c-0.5,0.1-0.9,0.4-1.2,0.8c-0.3,0.4-0.5,0.9-0.6,1.5
	c-0.1,0.8-0.2,1.6-0.1,2.4h8.1V120c0-0.6-0.1-1.2-0.2-1.9c-0.1-0.5-0.3-0.9-0.6-1.2c-0.3-0.3-0.8-0.6-1.2-0.7
	C264.8,116.1,264.1,116,263.4,116L263.4,116z"/>
<path class="st0" d="M280.8,130c0.1,0.8-0.2,1.6-0.7,2.1c-0.6,0.5-1.5,0.8-2.3,0.7c-0.8,0.1-1.6-0.2-2.2-0.7
	c-0.5-0.6-0.7-1.4-0.6-2.1c-0.2-1.4,0.7-2.7,2.1-2.9c0.3,0,0.6,0,0.8,0c0.8-0.1,1.6,0.2,2.3,0.7C280.7,128.4,280.9,129.2,280.8,130z
	"/>
<path class="st0" d="M304.7,132.5h-3.1c-1.3,0-2.6-0.1-3.9-0.3c-0.9-0.2-1.7-0.6-2.4-1.2c-0.6-0.6-1.1-1.4-1.2-2.3
	c-0.2-1.2-0.4-2.4-0.3-3.6v-16.8l4.9-0.8v5.4h7.1l-0.8,4h-6.3v7.9c0,0.6,0,1.2,0.1,1.9c0.1,0.4,0.2,0.8,0.5,1.1
	c0.3,0.3,0.6,0.5,1,0.5c0.6,0.1,1.1,0.1,1.7,0.1h3.5L304.7,132.5z"/>
<path class="st0" d="M310.3,132.5v-28h4.9v9.4c0.6-0.5,1.2-0.8,1.9-1.1c1.1-0.4,2.3-0.5,3.5-0.5c2-0.1,3.9,0.4,5.6,1.5
	c1.4,1,2.1,2.7,2.1,5v13.7h-4.9v-12.8c0-0.5,0-1-0.1-1.5c-0.1-0.4-0.2-0.8-0.5-1.1c-0.3-0.3-0.7-0.5-1.1-0.6c-0.7-0.2-1.3-0.2-2-0.2
	c-0.7,0-1.4,0.1-2.1,0.2c-0.5,0.1-0.9,0.4-1.3,0.7c-0.3,0.4-0.6,0.9-0.7,1.4c-0.1,0.7-0.2,1.4-0.2,2.1v11.8L310.3,132.5z"/>
<path class="st0" d="M338.8,107.4c0.1,0.7-0.2,1.5-0.6,2.1c-1.4,0.8-3.1,0.8-4.5,0c-0.9-1.2-0.9-2.9,0-4.1c1.4-0.9,3.1-0.9,4.5,0
	C338.6,105.9,338.8,106.6,338.8,107.4z M333.4,112.9h4.9v19.6h-4.9V112.9z"/>
<path class="st0" d="M343.4,132.5v-13.4c0-1.1,0.2-2.2,0.5-3.2c0.3-0.8,0.9-1.6,1.6-2.1c0.8-0.6,1.8-1,2.8-1.2
	c1.3-0.3,2.7-0.4,4-0.4c3.1,0,5.4,0.5,6.8,1.6c1.4,1,2.1,2.8,2.1,5.3v13.4h-4.9v-12.7c0-0.5,0-1-0.1-1.5c-0.1-0.4-0.2-0.8-0.5-1.1
	c-0.3-0.3-0.8-0.5-1.2-0.6c-1.5-0.3-3-0.3-4.4,0c-0.5,0.1-0.9,0.3-1.2,0.6c-0.3,0.3-0.5,0.7-0.5,1.1c-0.1,0.5-0.1,1-0.1,1.5v12.8
	L343.4,132.5z"/>
<path class="st0" d="M371.4,120.3l7.4-7.4h5.9l-9,8.8l9.9,10.9h-6.1l-8.1-9.1v9.1h-4.9v-28h4.9L371.4,120.3z"/>
<path class="st0" d="M394.5,130c0.1,0.8-0.2,1.6-0.7,2.1c-0.6,0.5-1.5,0.8-2.3,0.7c-0.8,0.1-1.6-0.2-2.2-0.7
	c-0.5-0.6-0.8-1.4-0.7-2.1c-0.2-1.4,0.7-2.7,2.1-2.9c0.3,0,0.6,0,0.8,0c0.8-0.1,1.6,0.2,2.3,0.7C394.3,128.4,394.6,129.2,394.5,130z
	"/>
<path class="st0" d="M424.4,129c0.1,1-0.2,2-0.9,2.8c-0.9,0.6-2,0.9-3.1,0.8h-6.1c-2.7,0-4.6-0.5-5.7-1.5c-1.2-1.1-1.8-2.7-1.7-4.3
	v-0.8c-0.2-1.7,0.5-3.4,1.9-4.6c1.2-0.9,3.2-1.4,5.8-1.4c1.1,0,2.2,0.1,3.3,0.3c0.7,0.1,1.3,0.4,1.9,0.7v-0.7c0-0.6-0.1-1.1-0.2-1.7
	c-0.1-0.4-0.4-0.8-0.7-1.1c-0.4-0.3-0.9-0.5-1.3-0.6c-0.7-0.1-1.4-0.2-2.1-0.1h-1.6h-1.8h-1.8h-1.6l0.8-4c0.7,0,1.6,0,2.6-0.1h3.5
	c3.1,0,5.3,0.5,6.8,1.6c1.5,1.2,2.3,3.2,2.1,5.1L424.4,129z M419.7,129v-3c0-0.4,0-0.8-0.1-1.1c-0.1-0.3-0.3-0.6-0.6-0.9
	c-0.4-0.2-0.8-0.4-1.2-0.4c-0.7-0.1-1.3-0.1-2-0.1h-0.6c-1-0.1-2,0.1-2.9,0.5c-0.6,0.5-0.8,1.2-0.8,1.9v0.7
	c-0.1,0.7,0.2,1.3,0.7,1.8c0.8,0.5,1.7,0.7,2.6,0.6L419.7,129z"/>
<path class="st0" d="M438.7,116.8c-0.8,0-1.5,0-2.3,0.2c-0.5,0.1-1,0.3-1.4,0.7c-0.4,0.4-0.6,0.9-0.7,1.5c-0.1,0.8-0.2,1.7-0.2,2.6
	v2c0,0.9,0.1,1.7,0.2,2.6c0.1,0.6,0.3,1.1,0.7,1.5c0.4,0.4,0.9,0.6,1.4,0.7c0.7,0.1,1.5,0.2,2.2,0.2h2.8l2.7-0.1l-0.8,4l-2.6,0.1
	h-2.3c-1.5,0-3-0.1-4.4-0.5c-1.1-0.3-2.1-0.8-2.9-1.5c-0.8-0.8-1.3-1.7-1.6-2.7c-0.3-1.3-0.5-2.7-0.5-4.1v-2c0-1.4,0.1-2.8,0.5-4.1
	c0.3-1,0.8-2,1.6-2.8c0.8-0.7,1.8-1.3,2.9-1.5c1.4-0.3,2.9-0.5,4.4-0.5c1.4,0,3.2,0,5.5,0.1l-0.8,4c-1.1,0-2-0.1-2.8-0.1
	L438.7,116.8z"/>
<path class="st0" d="M459.7,132.5h-3.1c-1.3,0-2.6-0.1-3.9-0.3c-0.9-0.2-1.7-0.6-2.4-1.2c-0.6-0.6-1.1-1.4-1.2-2.3
	c-0.2-1.2-0.4-2.4-0.3-3.6v-16.8l4.9-0.8v5.4h7.1l-0.8,4h-6.3v7.9c0,0.6,0,1.2,0.1,1.9c0.1,0.4,0.2,0.8,0.5,1.1
	c0.3,0.3,0.6,0.5,1,0.5c0.6,0.1,1.1,0.1,1.7,0.1h3.5L459.7,132.5z"/>
<path class="st0" d="M470.2,130c0.1,0.8-0.2,1.6-0.7,2.1c-0.6,0.5-1.5,0.8-2.3,0.7c-0.8,0.1-1.6-0.2-2.2-0.7
	c-0.5-0.6-0.8-1.4-0.7-2.1c-0.2-1.4,0.7-2.7,2.1-2.9c0.3,0,0.6,0,0.8,0c0.8-0.1,1.6,0.2,2.3,0.7C470,128.4,470.3,129.2,470.2,130z"
	/>
<g>
	<g>
		<path class="st0" d="M134.3,84.7V74.3h-20.8V48h38.8c12.7,23,12.7,51,0,74H54l34.1-84.4H24.6c26.2-33.4,74.4-39.2,107.8-13
			c4.8,3.8,9.2,8.2,13,13H90.5v76.8h22.9V84.7H134.3z M17.8,48h41.4L25,132.5h120.4c-26.2,33.4-74.5,39.2-107.8,13
			C8,122.2-0.4,81,17.8,48 M170.1,85c0-46.9-38.1-85-85-85s-85,38.1-85,85s38.1,85,85,85l0,0C132,170,170.1,132,170.1,85"/>
	</g>
</g>
</svg>
